<svg width="18" height="22" viewBox="0 0 18 22" fill="none" xmlns="http://www.w3.org/2000/svg">
<path d="M6.87713 11.8052H14.1398C14.3517 11.8052 14.5212 11.6357 14.5212 11.4238C14.5212 11.212 14.3517 11.0425 14.1398 11.0425H6.87713C6.66526 11.0425 6.49577 11.212 6.49577 11.4238C6.49577 11.6357 6.66526 11.8052 6.87713 11.8052Z" fill="white" stroke="white" stroke-width="0.5"/>
<path d="M6.87713 8.66945H9.90255C10.1144 8.66945 10.2839 8.49996 10.2839 8.28809C10.2839 8.07623 10.1144 7.90674 9.90255 7.90674H6.87713C6.66526 7.90674 6.49577 8.07623 6.49577 8.28809C6.49577 8.49996 6.66526 8.66945 6.87713 8.66945Z" fill="white" stroke="white" stroke-width="0.5"/>
<path d="M6.87713 14.9407H14.1398C14.3517 14.9407 14.5212 14.7712 14.5212 14.5593C14.5212 14.3475 14.3517 14.178 14.1398 14.178H6.87713C6.66526 14.178 6.49577 14.3475 6.49577 14.5593C6.49577 14.7712 6.66526 14.9407 6.87713 14.9407Z" fill="white" stroke="white" stroke-width="0.5"/>
<path d="M2.63983 21H13.4534C14.3644 21 15.1102 20.267 15.1102 19.3559V18.5H15.7161C16.6271 18.5 17.3559 17.7754 17.3559 16.8644V4.7161C17.3559 4.61864 17.3263 4.52542 17.2585 4.45339L14.0636 1.11441C13.9915 1.03814 13.8941 1 13.7924 1H5.13136C4.22034 1 3.45763 1.73305 3.45763 2.64407V3.24576H2.63983C1.72881 3.24576 1 4 1 4.91102V19.3559C1 20.267 1.72881 21 2.63983 21ZM14.178 2.32627L16.0975 4.34746H14.178V2.32627ZM4.22034 2.64407C4.22034 2.15254 4.63983 1.76271 5.13136 1.76271H13.4153V4.72034C13.4153 4.9322 13.5805 5.11017 13.7924 5.11017H16.5932V16.8644C16.5932 17.3559 16.2076 17.7373 15.7161 17.7373H5.13136C4.63983 17.7373 4.22034 17.3517 4.22034 16.8644V2.64407ZM1.76271 4.91102C1.76271 4.41949 2.1483 4.00847 2.63983 4.00847H3.45763V16.8644C3.45763 17.7754 4.22034 18.5 5.13136 18.5H14.3475V19.3559C14.3475 19.8475 13.9449 20.2373 13.4534 20.2373H2.63983C2.1483 20.2373 1.76271 19.8432 1.76271 19.3559V4.91102Z" fill="white" stroke="white" stroke-width="0.5"/>
</svg>
