<svg width="22" height="20" viewBox="0 0 22 20" fill="none" xmlns="http://www.w3.org/2000/svg">
<path d="M19.6779 7.41964H19.0329C18.9104 7.41964 18.7943 7.44233 18.6881 7.48769C18.3905 3.30975 14.8994 0 10.646 0C6.39257 0 2.9005 3.30882 2.60297 7.48676C2.49682 7.4414 2.38069 7.41872 2.2582 7.41872H1.61314C0.723104 7.41872 0 8.14091 0 9.03185V12.2582C0 13.1482 0.722198 13.8714 1.61314 13.8714H2.2582C2.79078 13.8714 3.22627 13.4359 3.22627 12.9033V8.06478C3.22627 3.97393 6.55413 0.64514 10.6459 0.64514C14.7368 0.64514 18.0655 3.97393 18.0655 8.06478V14.1944C18.0655 16.1514 16.4733 17.7427 14.5173 17.7427H12.553C12.4015 16.8264 11.6049 16.1296 10.6468 16.1296C9.57896 16.1296 8.71162 16.9969 8.71162 18.0648C8.71162 19.1326 9.57899 20 10.6468 20C11.6049 20 12.4015 19.3032 12.553 18.3869H14.5173C16.8299 18.3869 18.7108 16.5061 18.7108 14.1934V13.8123C18.8106 13.8513 18.9204 13.8704 19.0338 13.8704H19.6788C20.5689 13.8704 21.292 13.1482 21.292 12.2572V9.03088C21.292 8.14084 20.5698 7.41774 19.6788 7.41774L19.6779 7.41964ZM2.25822 13.2262H1.61316C1.08058 13.2262 0.645087 12.7907 0.645087 12.2581V9.03178C0.645087 8.4992 1.08058 8.06371 1.61316 8.06371H2.25822C2.43605 8.06371 2.58121 8.20887 2.58121 8.38669V12.903C2.58121 13.0809 2.43604 13.2262 2.25822 13.2262ZM10.645 19.3549C9.93189 19.3549 9.35485 18.7779 9.35485 18.0648C9.35485 17.3517 9.93189 16.7746 10.645 16.7746C11.3581 16.7746 11.9352 17.3517 11.9352 18.0648C11.9352 18.7779 11.3581 19.3549 10.645 19.3549ZM20.6451 12.2581C20.6451 12.7907 20.2096 13.2262 19.677 13.2262H19.0319C18.8541 13.2262 18.709 13.0811 18.709 12.9032V8.38688C18.709 8.20905 18.8541 8.0639 19.0319 8.0639H19.677C20.2096 8.0639 20.6451 8.49939 20.6451 9.03197V12.2581Z" fill="white"/>
<path d="M15.8066 8.70943C15.8066 5.86421 13.4903 3.54785 10.645 3.54785C7.79971 3.54785 5.48342 5.86414 5.48342 8.70943V13.5479C5.48342 13.7258 5.62859 13.8709 5.80641 13.8709H10.6449C13.4901 13.8709 15.8066 11.5547 15.8066 8.70943ZM8.06479 7.74136C8.59737 7.74136 9.03286 8.17685 9.03286 8.70943C9.03286 9.24201 8.59737 9.6775 8.06479 9.6775C7.53221 9.6775 7.09672 9.24201 7.09672 8.70943C7.09672 8.17685 7.53221 7.74136 8.06479 7.74136ZM14.1935 8.70943C14.1935 9.24201 13.758 9.6775 13.2254 9.6775C12.6929 9.6775 12.2574 9.24201 12.2574 8.70943C12.2574 8.17685 12.6929 7.74136 13.2254 7.74136C13.758 7.74136 14.1935 8.17685 14.1935 8.70943ZM11.6133 8.70943C11.6133 9.24201 11.1778 9.6775 10.6452 9.6775C10.1127 9.6775 9.67716 9.24201 9.67716 8.70943C9.67716 8.17685 10.1127 7.74136 10.6452 7.74136C11.1778 7.74136 11.6133 8.17685 11.6133 8.70943Z" fill="white"/>
</svg>
