                <svg
                  width="19"
                  height="25"
                  viewBox="0 0 19 25"
                  fill="none"
                  xmlns="http://www.w3.org/2000/svg"
                >
                  <path
                    d="M16.8719 9.40063C16.8719 9.54819 16.8946 9.68439 16.8946 9.84045C16.8946 9.99651 16.8946 10.1242 16.8719 10.2803H19V9.40063H16.8719Z"
                    fill="white"
                  />
                  <path
                    d="M1.88411 16.4861L2.50836 17.1103L4.01225 15.6064C3.79251 15.4103 3.58409 15.2019 3.38799 14.9822L1.88411 16.4861Z"
                    fill="white"
                  />
                  <path
                    d="M14.2954 4.07468C14.5151 4.27078 14.7236 4.4792 14.9196 4.69894L16.4235 3.19505L15.7993 2.5708L14.2954 4.07468Z"
                    fill="white"
                  />
                  <path
                    d="M9.59363 2.12814V0H8.71117V2.12814C8.85872 2.12814 8.99492 2.10544 9.15382 2.10544C9.31272 2.10544 9.44892 2.11962 9.59363 2.12814Z"
                    fill="white"
                  />
                  <path
                    d="M14.2954 15.6064L15.7993 17.1103L16.4235 16.4861L14.9196 14.9822C14.7236 15.2019 14.5151 15.4104 14.2954 15.6064Z"
                    fill="white"
                  />
                  <path
                    d="M4.01225 4.07468L2.50836 2.5708L1.88411 3.19505L3.38799 4.69894C3.58408 4.47919 3.7925 4.27077 4.01225 4.07468Z"
                    fill="white"
                  />
                  <path
                    d="M15.8589 9.84051C15.8593 8.28409 15.318 6.77605 14.3279 5.57516C13.3378 4.37427 11.9606 3.55541 10.4327 3.25908C8.90475 2.96275 7.32131 3.20744 5.95408 3.95116C4.58685 4.69487 3.52109 5.89125 2.93967 7.33498C1.76338 7.69664 0.762669 8.48104 0.130525 9.53689L0 9.75822L0.127688 9.97955C0.743717 11.0377 1.72899 11.831 2.89427 12.207C3.34857 13.4085 4.13816 14.4544 5.16926 15.2204C6.20037 15.9864 7.42967 16.4405 8.71117 16.5285V16.9513H7.65278V24.7488H10.6549V16.9513H9.59364V16.5229C11.2905 16.4106 12.8813 15.6581 14.0445 14.4176C15.2076 13.177 15.8561 11.541 15.8589 9.84051ZM2.57646 11.1259C1.95252 10.8075 1.41875 10.3371 1.02434 9.75822C1.15141 9.57615 1.2938 9.40528 1.44997 9.24747C1.78134 8.8989 2.17247 8.61251 2.60484 8.40189C2.4063 9.29414 2.39567 10.218 2.57363 11.1146L2.57646 11.1259ZM9.77808 23.8663H8.53524V17.8338H9.77808V23.8663ZM4.05197 12.6383C3.67349 11.9513 3.43889 11.1943 3.36246 10.4137C3.81345 11.0889 4.49697 11.5746 5.28291 11.7785C6.06885 11.9824 6.90232 11.8902 7.62466 11.5194C8.347 11.1486 8.90776 10.5251 9.2002 9.76762C9.49264 9.01016 9.49633 8.1716 9.21057 7.41159C10.2838 7.973 11.1879 8.81047 11.8296 9.83767C11.2152 10.7974 10.3699 11.5875 9.37094 12.1358C8.37203 12.6841 7.2515 12.973 6.11201 12.976H6.06661C5.38177 12.9668 4.70237 12.8529 4.05197 12.6383ZM6.06093 13.8584H6.11484C7.45211 13.8543 8.7653 13.5023 9.92542 12.8372C11.0856 12.1721 12.0527 11.2166 12.7319 10.0647L12.8625 9.84335L12.7348 9.62202C12.0672 8.45299 11.105 7.47922 9.94404 6.79768C8.78308 6.11614 7.46384 5.7506 6.11768 5.73746H6.06661C5.69323 5.73924 5.3205 5.76864 4.95146 5.82542C5.75831 4.97743 6.80201 4.3923 7.94639 4.14638C9.09078 3.90045 10.2827 4.00515 11.3667 4.44681C12.4507 4.88846 13.3764 5.64658 14.0231 6.62224C14.6697 7.59791 15.0073 8.74583 14.9918 9.91623C14.9763 11.0866 14.6083 12.2252 13.936 13.1834C13.2637 14.1415 12.3182 14.8748 11.2229 15.2876C10.1276 15.7003 8.93326 15.7734 7.79581 15.4972C6.65835 15.221 5.63054 14.6084 4.84648 13.7393C5.24742 13.8116 5.65356 13.8515 6.06093 13.8584Z"
                    fill="white"
                  />
                  <path
                    d="M13.5094 12.2694L12.8284 11.7019C12.1699 12.4977 11.3754 13.1702 10.4818 13.6882L10.9131 14.4685C11.9023 13.8956 12.7815 13.1509 13.5094 12.2694Z"
                    fill="white"
                  />
                </svg>