<svg width="15" height="22" viewBox="0 0 15 22" fill="none" xmlns="http://www.w3.org/2000/svg">
<path d="M0 14.74C0 16.28 0.924 17.688 2.288 18.304L10.164 21.912C10.296 21.956 10.384 22 10.516 22C11 22 11.396 21.604 11.396 21.12V17.6H12.276C13.728 17.6 14.916 16.412 14.916 14.96V13.2C14.916 12.716 14.52 12.32 14.036 12.32C13.552 12.32 13.156 12.716 13.156 13.2V14.96C13.156 15.444 12.76 15.84 12.276 15.84H11.396V5.28C11.396 4.928 11.176 4.62 10.868 4.488L4.928 1.76H12.32C12.804 1.76 13.2 2.156 13.2 2.64V4.4C13.2 4.884 13.596 5.28 14.08 5.28C14.564 5.28 14.96 4.884 14.96 4.4V2.64C14.96 1.188 13.772 0 12.32 0H2.64C1.188 0 0 1.188 0 2.64V14.74ZM1.76 2.64C1.76 2.508 1.804 2.376 1.848 2.288L9.68 5.852V19.756L3.036 16.72C2.288 16.368 1.76 15.62 1.76 14.74V2.64Z" fill="white"/>
</svg>
