<svg width="22" height="13" viewBox="0 0 22 13" fill="none" xmlns="http://www.w3.org/2000/svg">
<path d="M19.5692 6.64743C20.2019 6.11635 20.6043 5.31974 20.6043 4.43154C20.6043 2.83685 19.3066 1.5392 17.7115 1.5392C16.1167 1.5392 14.8187 2.83685 14.8187 4.43154C14.8187 5.31949 15.2211 6.11611 15.8535 6.64743C15.3234 6.90279 14.8545 7.26524 14.4729 7.70522C13.9825 7.31249 13.4264 6.99752 12.8202 6.78747C13.9064 6.15657 14.6389 4.98103 14.6389 3.63807C14.6389 1.632 13.0065 0 11 0C8.99399 0 7.36136 1.632 7.36136 3.63807C7.36136 4.98103 8.09335 6.15681 9.17935 6.78747C8.57359 6.99752 8.01727 7.31249 7.52685 7.70522C7.14523 7.26524 6.67565 6.90279 6.14573 6.64743C6.77838 6.11635 7.18133 5.31974 7.18133 4.43154C7.18133 2.83685 5.88332 1.5392 4.28777 1.5392C2.69221 1.5392 1.39566 2.83685 1.39566 4.43154C1.39566 5.31949 1.79812 6.11611 2.43053 6.64743C0.993678 7.34083 0 8.81268 0 10.5115C0 11.0361 0.424512 11.4601 0.948852 11.4601H5.46583C5.44451 11.6553 5.43046 11.8506 5.43046 12.0507C5.43046 12.5748 5.85546 13 6.3798 13H15.6202C16.1445 13 16.5698 12.5748 16.5698 12.0507C16.5698 11.8509 16.555 11.6553 16.5344 11.4601H21.0507C21.575 11.4601 22 11.0363 22 10.5115C22 8.81244 21.0061 7.34083 19.5692 6.64743ZM15.7678 4.43154C15.7678 3.35751 16.6381 2.48773 17.7117 2.48773C18.7854 2.48773 19.6557 3.358 19.6557 4.43154C19.6557 5.50508 18.7851 6.37486 17.7117 6.37486C16.6381 6.37486 15.7678 5.50508 15.7678 4.43154ZM8.31045 3.63807C8.31045 2.1529 9.51445 0.948525 11 0.948525C12.4851 0.948525 13.6895 2.15314 13.6895 3.63807C13.6895 5.12373 12.4848 6.32786 11 6.32786C9.51421 6.32762 8.31045 5.12349 8.31045 3.63807ZM2.34378 4.43154C2.34378 3.35751 3.21413 2.48773 4.28752 2.48773C5.36165 2.48773 6.23175 3.358 6.23175 4.43154C6.23175 5.50508 5.3614 6.37486 4.28752 6.37486C3.21413 6.37486 2.34378 5.50508 2.34378 4.43154ZM0.948852 10.5115C0.948852 8.6678 2.44409 7.17221 4.28777 7.17221C5.31149 7.17221 6.22593 7.63399 6.83871 8.35865C6.29402 8.97137 5.88405 9.70403 5.65168 10.5115H0.948852ZM15.62 12.0505H6.3798C6.3798 11.8506 6.39433 11.6539 6.41856 11.4598C6.46024 11.1318 6.53656 10.8142 6.64342 10.5113C6.81206 10.035 7.0563 9.595 7.36209 9.20396C7.5695 8.93939 7.80477 8.69687 8.06452 8.4827C8.86314 7.82515 9.88517 7.42999 11.0002 7.42999C12.1151 7.42999 13.1371 7.82491 13.936 8.4827C14.1952 8.69615 14.4303 8.93939 14.6384 9.20396C14.9442 9.59452 15.1884 10.0352 15.3568 10.5113C15.4639 10.8142 15.5402 11.132 15.5819 11.4598C15.6064 11.6541 15.62 11.8506 15.62 12.0505ZM16.3486 10.5115C16.1157 9.70403 15.7055 8.97113 15.1615 8.35865C15.7736 7.63399 16.6883 7.17221 17.7117 7.17221C19.5561 7.17221 21.0509 8.6678 21.0509 10.5115H16.3486Z" fill="white"/>
</svg>
