<svg width="24" height="24" viewBox="0 0 24 24" fill="none" xmlns="http://www.w3.org/2000/svg">
<circle cx="12" cy="12" r="12" fill="#D9D9D9"/>
<path d="M16.518 18H7.46429C7.20776 18 7 17.7922 7 17.5357V15.6785C7 13.1186 9.08299 11.0356 11.6429 11.0356H12.3393C14.8993 11.0356 16.9823 13.1186 16.9823 15.6785V17.5357C16.9823 17.7922 16.7746 18 16.518 18ZM7.92873 17.0714H16.0539V15.6785C16.0539 13.6305 14.3877 11.9642 12.3396 11.9642H11.6431C9.59505 11.9642 7.9288 13.6305 7.9288 15.6785L7.92873 17.0714ZM11.9913 10.4553C10.4876 10.4553 9.26366 9.23132 9.26366 7.72765C9.26366 6.22399 10.4877 5 11.9913 5C13.495 5 14.719 6.22399 14.719 7.72765C14.719 9.23132 13.495 10.4553 11.9913 10.4553ZM11.9913 5.92843C10.9995 5.92843 10.1922 6.73572 10.1922 7.72751C10.1922 8.71929 10.9995 9.52658 11.9913 9.52658C12.9831 9.52658 13.7904 8.71929 13.7904 7.72751C13.7904 6.73572 12.9831 5.92843 11.9913 5.92843Z" fill="#6D6D6D"/>
</svg>
